
<svg version="1.0" xmlns="http://www.w3.org/2000/svg"
 width="285.000000pt" height="50.000000pt" viewBox="0 0 285.000000 50.000000"
 preserveAspectRatio="xMidYMid meet">
<metadata>
Created by potrace 1.10, written by Peter Selinger 2001-2011
</metadata>
<g transform="translate(0.000000,50.000000) scale(0.100000,-0.100000)"
fill="#ad21d4" stroke="none">
<path d="M232 431 c57 -8 96 -35 123 -84 22 -40 23 -41 44 -28 12 8 10 16 -11
49 -33 50 -81 72 -150 71 l-53 -2 47 -6z"/>
<path d="M181 408 c-64 -18 -108 -63 -125 -128 -5 -17 0 -13 16 14 36 60 70
81 134 80 44 0 54 3 54 17 0 9 -7 20 -16 23 -18 7 -19 7 -63 -6z"/>
<path d="M404 377 c40 -60 38 -126 -4 -180 -17 -21 -18 -26 -5 -37 20 -16 37
-3 30 23 -4 15 -3 18 3 9 12 -18 22 16 22 76 0 42 -29 114 -51 128 -6 3 -4 -5
5 -19z"/>
<path d="M270 323 c1 -67 1 -68 16 -40 11 20 13 41 9 68 -11 62 -25 45 -25
-28z"/>
<path d="M2533 348 c-12 -13 -25 -37 -30 -54 -12 -44 -59 -96 -111 -120 -21
-10 -22 -1 -6 59 8 32 12 62 9 67 -13 20 -45 9 -76 -27 -17 -21 -29 -31 -27
-23 18 54 19 60 7 60 -6 0 -44 -31 -82 -70 -93 -92 -101 -91 -72 4 8 27 13 51
11 54 -11 11 -47 -13 -100 -68 -62 -64 -83 -74 -72 -37 4 12 10 39 13 60 5 32
3 37 -14 37 -23 0 -73 -36 -73 -52 0 -6 9 -3 20 7 28 25 36 12 20 -34 -30 -92
20 -96 103 -8 53 56 58 59 51 32 -4 -16 -8 -43 -8 -60 -1 -24 4 -31 22 -33 18
-3 38 11 83 58 61 64 70 62 44 -10 -8 -24 -13 -45 -11 -47 12 -12 44 20 54 54
15 47 46 88 60 80 6 -5 5 -24 -5 -57 -8 -28 -12 -57 -9 -65 8 -21 39 -19 69 5
14 11 30 20 36 20 6 0 18 11 27 25 22 34 29 25 14 -20 -7 -20 -10 -39 -7 -41
10 -10 47 17 47 34 0 25 48 92 65 92 23 0 17 -27 -11 -49 -33 -26 -32 -84 3
-89 24 -4 93 51 80 64 -4 4 -17 -2 -30 -14 -30 -28 -37 -28 -37 1 0 13 11 34
25 47 30 28 30 64 -1 68 -13 2 -33 -9 -52 -29 -18 -18 -32 -28 -32 -23 0 6 16
25 35 44 42 40 48 80 12 80 -13 0 -33 -10 -44 -22z m47 -7 c0 -11 -39 -59 -40
-49 0 14 23 58 32 58 4 0 8 -4 8 -9z"/>
<path d="M1902 337 c-12 -13 -25 -37 -28 -55 -4 -19 -21 -45 -41 -63 -19 -16
-32 -33 -29 -36 3 -4 18 4 33 18 21 19 25 21 20 6 -4 -11 -10 -30 -14 -45 -5
-21 -3 -24 11 -19 10 4 19 7 22 7 9 0 32 70 28 87 -3 12 8 30 30 52 20 19 36
43 36 53 0 26 -42 23 -68 -5z m48 -5 c0 -5 -9 -17 -20 -27 -22 -20 -26 -14
-10 16 11 19 30 26 30 11z"/>
<path d="M2136 347 c-15 -11 -15 -15 -4 -24 10 -8 18 -8 31 2 14 10 15 14 4
24 -10 8 -18 7 -31 -2z"/>
<path d="M754 331 c-22 -13 -43 -43 -68 -96 -31 -65 -40 -76 -59 -73 -31 4
-31 43 1 44 30 2 39 12 18 20 -29 11 -65 -5 -72 -31 -18 -71 85 -75 121 -5 11
22 23 30 43 30 25 0 27 -3 27 -37 0 -32 4 -39 23 -41 13 -2 32 4 43 14 25 22
25 38 -1 22 -10 -7 -21 -10 -24 -7 -3 3 4 38 14 79 11 41 20 81 20 88 0 18
-51 14 -86 -7z m32 -46 c-9 -40 -14 -45 -38 -45 -16 0 -28 3 -28 8 0 19 53 82
70 82 4 0 2 -20 -4 -45z"/>
<path d="M1712 328 c-7 -7 -12 -18 -12 -25 0 -7 -9 -13 -19 -13 -11 0 -23 -4
-26 -10 -3 -5 3 -10 15 -10 18 0 16 -3 -12 -29 -18 -16 -29 -33 -25 -38 5 -4
17 3 27 17 21 27 26 16 10 -24 -12 -32 -3 -56 19 -56 23 0 85 46 73 54 -5 3
-15 -1 -22 -9 -16 -19 -44 -20 -37 -1 3 8 9 30 12 50 6 31 11 35 43 38 19 2
37 8 39 15 3 9 -6 10 -32 6 -35 -6 -37 -5 -26 15 6 11 11 23 11 26 0 11 -26 6
-38 -6z"/>
<path d="M146 321 c20 -18 88 -60 92 -57 10 11 -21 45 -49 55 -39 13 -57 14
-43 2z"/>
<path d="M83 288 c-35 -67 -13 -173 44 -219 10 -8 7 0 -7 21 -35 49 -35 131
-1 179 19 27 21 35 10 42 -22 14 -27 11 -46 -23z"/>
<path d="M358 276 c-72 -41 -72 -41 -38 -42 21 -1 39 9 66 37 21 22 36 39 34
39 -3 0 -31 -15 -62 -34z"/>
<path d="M927 261 c-29 -27 -49 -53 -45 -56 4 -4 21 8 38 27 l31 33 -7 -40
c-5 -28 -18 -51 -45 -78 -22 -21 -39 -44 -39 -52 0 -39 63 -28 85 15 9 17 23
30 31 30 48 0 119 84 112 133 -5 35 -43 34 -79 -3 -31 -30 -34 -25 -14 23 13
31 -15 18 -68 -32z m123 -10 c0 -21 -40 -83 -57 -89 -26 -8 -25 29 1 68 28 42
56 53 56 21z m-131 -135 c-13 -27 -29 -35 -29 -14 0 13 31 50 37 44 2 -2 -2
-15 -8 -30z"/>
<path d="M1156 267 c-60 -57 -58 -127 4 -127 32 0 101 52 87 66 -4 4 -18 -3
-31 -15 -27 -26 -59 -25 -64 2 -2 12 3 17 18 17 27 0 77 29 85 48 8 20 -13 42
-41 42 -12 0 -38 -15 -58 -33z m68 5 c8 -13 -7 -30 -37 -41 -31 -12 -34 -5
-11 27 15 22 39 29 48 14z"/>
<path d="M1318 271 c-18 -16 -30 -33 -25 -37 4 -4 14 2 23 14 18 26 34 20 34
-12 0 -26 -40 -68 -61 -64 -7 2 -15 -5 -17 -15 -6 -27 33 -21 56 8 24 31 30
31 34 3 2 -13 10 -24 19 -26 19 -4 77 43 67 53 -4 4 -14 0 -23 -9 -23 -23 -32
-20 -38 12 -7 35 37 87 53 62 10 -17 17 -13 22 15 5 32 -33 32 -59 -1 l-23
-29 0 28 c0 36 -21 35 -62 -2z"/>
<path d="M2745 287 c-13 -10 -16 -21 -11 -40 5 -21 0 -30 -34 -57 -23 -18 -38
-35 -35 -38 3 -3 10 -1 17 6 8 8 14 7 25 -4 21 -21 79 -18 103 6 25 25 25 35
-1 61 -19 19 -20 22 -4 39 9 10 14 24 10 29 -9 15 -48 14 -70 -2z m43 -19 c-6
-18 -28 -21 -28 -4 0 9 7 16 16 16 9 0 14 -5 12 -12z m-8 -63 c26 -32 -18 -63
-48 -33 -9 9 -8 16 5 30 20 22 27 22 43 3z"/>
<path d="M139 204 c-40 -41 -30 -43 34 -5 46 27 47 29 23 33 -19 4 -33 -3 -57
-28z"/>
<path d="M232 184 c-11 -26 -11 -39 0 -75 l13 -44 3 38 c2 20 2 54 0 75 l-3
37 -13 -31z"/>
<path d="M280 204 c1 -22 34 -49 72 -61 53 -15 58 -11 15 14 -19 11 -46 28
-60 38 -15 9 -27 13 -27 9z"/>
<path d="M440 155 c-20 -38 -92 -69 -141 -61 -38 6 -40 5 -37 -16 7 -51 131
-13 175 54 14 21 24 41 21 43 -2 3 -11 -6 -18 -20z"/>
<path d="M126 157 c-17 -13 -17 -16 -2 -44 28 -54 71 -77 151 -80 l70 -2 -58
8 c-66 10 -100 34 -127 93 -15 34 -19 36 -34 25z"/>
</g>
</svg>
